<?xml version="1.0" encoding="UTF-8"?><svg id="Layer_1" xmlns="http://www.w3.org/2000/svg" viewBox="0 0 192.19 266.85"><defs><style>.cls-1{fill:#f7971d;}.cls-2{fill:#103b60;}</style></defs><path class="cls-2" d="M77.55,45.71c1.37,.19,2.72,.24,4.05,.18l9.16-18.16c2.46-4.88,6.65-8.31,11.45-9.94-2.26-8.44-9.38-15.14-18.58-16.4-12.24-1.68-23.52,6.89-25.19,19.12-1.68,12.24,6.89,23.52,19.12,25.19Z"/><path class="cls-2" d="M100.9,78.12l18.2-36.1c2.92-5.79,.59-12.85-5.2-15.77-5.79-2.92-12.85-.59-15.77,5.2l-13.9,27.58-38.76-8.76c-8.27-1.13-15.89,4.65-17.02,12.92-.19,1.37-7,51.11-9.56,69.8-.63,4.59-.71,9.35-.22,13.96l4.28,40.22L.97,239.01c-2.62,6.18,.26,13.32,6.45,15.94,6.22,2.64,13.34-.3,15.94-6.45l23.22-54.75c.81-1.9,1.12-3.97,.9-6.03l-4.69-44.35,6.95,.95,7.54,43.69,2.84,56.35c.34,6.74,6.08,11.87,12.76,11.53,6.71-.34,11.87-6.05,11.53-12.76l-2.88-57.08c-.02-.49-.08-.97-.16-1.45l-6.6-38.28,5.5-40.16v41.34c0,5.61,4.55,10.16,10.17,10.16s10.16-4.55,10.16-10.16v-55.36c-4.55,2.76-10.4,2.97-15.32,.02l-25.21-15.27,27.34,7.29c5.34,1.43,11-1.08,13.51-6.06Z"/><path class="cls-2" d="M183.68,72.78c-.07-13.2-11.03-23.93-24.43-23.93h-34.34c-.03,.05-18.95,37.61-19.98,39.09-.01,19.39,0,152.91,0,155.82,0,6.74,5.46,12.2,12.2,12.2s12.2-5.46,12.2-12.2v-97.5h5.27v97.5c0,6.74,5.46,12.2,12.2,12.2s12.2-5.46,12.2-12.2c-.08-126.85,.24-5.83,0-174.58h.26c2.13,0,4.08,1.76,4.1,3.69v74.64c0,5.61,4.55,10.16,10.16,10.16s10.17-4.55,10.17-10.16V72.83s0-.03,0-.05Z"/><path class="cls-2" d="M127.98,41.75c1.29,.25,2.62,.38,3.99,.38,11.63,0,21.07-9.43,21.07-21.07S143.6,0,131.97,0c-10.21,0-18.73,7.27-20.66,16.92,2.14,.29,4.27,.93,6.31,1.96,8.57,4.32,12.68,13.96,10.36,22.88Z"/><path class="cls-1" d="M86.06,56.61c1.37,.19,2.72,.24,4.05,.18l9.16-18.16c2.46-4.88,6.65-8.31,11.45-9.94-2.26-8.44-9.38-15.14-18.58-16.4-12.24-1.68-23.52,6.89-25.19,19.12-1.68,12.24,6.89,23.52,19.12,25.19Z"/><path class="cls-1" d="M109.41,89.02l18.2-36.1c2.92-5.79,.59-12.85-5.2-15.77-5.79-2.92-12.85-.59-15.77,5.2l-13.9,27.58-38.76-8.76c-8.27-1.13-15.89,4.65-17.02,12.92-.19,1.37-7,51.11-9.56,69.8-.63,4.59-.71,9.35-.22,13.96l4.28,40.22-21.99,51.85c-2.62,6.18,.26,13.32,6.45,15.94,6.22,2.64,13.34-.3,15.94-6.45l23.22-54.75c.81-1.9,1.12-3.97,.9-6.03l-4.69-44.35,6.95,.95,7.54,43.69,2.84,56.35c.34,6.74,6.08,11.87,12.76,11.53,6.71-.34,11.87-6.05,11.53-12.76l-2.88-57.08c-.02-.49-.08-.97-.16-1.45l-6.6-38.28,5.5-40.16v41.34c0,5.61,4.55,10.16,10.17,10.16s10.16-4.55,10.16-10.16v-55.36c-4.55,2.76-10.4,2.97-15.32,.02l-25.21-15.27,27.34,7.29c5.34,1.43,11-1.08,13.51-6.06Z"/><path class="cls-1" d="M192.19,83.68c-.07-13.2-11.03-23.93-24.43-23.93h-34.34c-.03,.05-18.95,37.61-19.98,39.09-.01,19.39,0,152.91,0,155.82,0,6.74,5.46,12.2,12.2,12.2s12.2-5.46,12.2-12.2v-97.5h5.27v97.5c0,6.74,5.46,12.2,12.2,12.2s12.2-5.46,12.2-12.2c-.08-126.85,.24-5.83,0-174.58h.26c2.13,0,4.08,1.76,4.1,3.69v74.64c0,5.61,4.55,10.16,10.16,10.16s10.17-4.55,10.17-10.16V83.73s0-.03,0-.05Z"/><path class="cls-1" d="M136.49,52.65c1.29,.25,2.62,.38,3.99,.38,11.63,0,21.07-9.43,21.07-21.07s-9.43-21.07-21.07-21.07c-10.21,0-18.73,7.27-20.66,16.92,2.14,.29,4.27,.93,6.31,1.96,8.57,4.32,12.68,13.96,10.36,22.88Z"/></svg>