<?xml version="1.0" encoding="UTF-8"?><svg id="Layer_1" xmlns="http://www.w3.org/2000/svg" viewBox="0 0 168.25 168.25"><defs><style>.cls-1{fill:#103b60;}.cls-2{fill:#fff;stroke:#f7971d;stroke-miterlimit:10;stroke-width:3.58px;}</style></defs><circle class="cls-2" cx="84.12" cy="84.12" r="82.33"/><path class="cls-1" d="M145.29,61.96c-16.58-14.96-37.37-20.5-57.96-15.84-14.24-9.2-46.59-1.78-47.98-1.45-.91,.21-1.66,.89-1.96,1.79-.3,.89-.11,1.88,.49,2.61,5.77,6.92,11.98,14.9,14.07,18.32-4.8,4.53-8.82,8.97-11.24,12.36-10.71-8.75-24.92-4.08-25.57-3.86-1.43,.48-2.19,2.03-1.7,3.46,5.07,14.95,12.83,20.68,17.45,22.85-2.35,4.53-5.01,13.8,.06,28.75,.48,1.43,2.03,2.19,3.46,1.7,.65-.22,14.77-5.17,17.94-18.62,5.29,1.62,13.95,2.99,23.07,3.48-.8,3.47-.16,8.35,2.07,14.91,.48,1.43,2.03,2.19,3.46,1.7,.77-.26,18.26-6.37,23.52-19.58,22.08-7.97,37.26-26.11,41.67-50.06,.17-.93-.15-1.88-.85-2.51Zm-57.8-.41c-.02,.09-2.24,8.95,1.79,20.82,2.19,6.45,5.28,11.02,7.49,13.72,.95,1.17,.78,2.88-.38,3.83-.26,.21-.55,.37-.85,.47-1.05,.35-2.25,.05-2.99-.86-2.49-3.05-5.98-8.19-8.43-15.42-4.59-13.53-2.01-23.55-1.9-23.97,.39-1.45,1.87-2.31,3.32-1.93,1.45,.38,2.32,1.87,1.94,3.33Zm23.86,38.75c-.34,.44-.79,.75-1.28,.92-.83,.28-1.79,.16-2.54-.42-.35-.26-8.49-6.65-13.09-20.17-4.59-13.53-2.01-23.55-1.9-23.97,.39-1.45,1.87-2.31,3.32-1.93,1.45,.38,2.32,1.87,1.94,3.32-.02,.09-2.24,8.95,1.79,20.82,4.07,11.98,11.18,17.55,11.25,17.61,1.19,.92,1.42,2.63,.5,3.82Zm2.86-29.26c-2.84,.97-5.95-.56-6.91-3.41s.56-5.95,3.41-6.91c2.84-.97,5.95,.56,6.91,3.41,.97,2.84-.56,5.95-3.41,6.91Z"/></svg>