<?xml version="1.0" encoding="UTF-8"?><svg id="Layer_1" xmlns="http://www.w3.org/2000/svg" viewBox="0 0 97.82 110.61"><defs><style>.cls-1{fill:#f7971d;}.cls-2{fill:#103b60;}</style></defs><path class="cls-2" d="M83.79,47.34c-1.19-1.26-2.65-2.43-3.75-2.2-1.8,.37-2.88,2.44-3.66,4.93l-.03-.02c-.73,2.58-2.34,4.93-4.73,6.56-5.32,3.64-12.55,2.36-16.31-2.82-3.5-5.39-2.08-12.63,3.25-16.28,2.39-1.63,5.16-2.28,7.83-2.03v-.03c2.6,.17,4.92-.08,5.92-1.63,.61-.95,.05-2.72-.7-4.29-3.98-5.37-7.42-9.61-9.95-12.59-2.69-3.25-4.36-5.13-4.36-5.13l-.11,.08s-9.01,7.95-21.53,17.05c-.56,.06-1.11-.09-1.48-.32-1.55-1-1.88-3.44-1.71-6.04h-.05c.25-2.68-.4-5.46-2.04-7.85-3.71-5.42-11.11-6.81-16.53-3.1s-6.98,11.2-3.27,16.61c1.61,2.36,4.27,3.63,6.28,4.79l-.33-.19c3.24,1.24,5.49,1.87,5.86,3.68,.09,.42,.16,1-.08,1.5C9.96,45.84,.16,50.9,.08,50.95h0s0,0,0,0l-.08,.05s1.78,3.61,4.93,9.21c2.04,3.67,4.69,8.2,7.87,13.19,.01,0,.02,.01,.03,.02,.07,.12,.15,.23,.22,.35,.54,.3,1.01,.37,1.47,.27,1.81-.37,2.93-2.54,3.71-5.03h.01c.73-2.58,2.32-4.95,4.71-6.59,5.36-3.66,12.63-2.37,16.38,2.9,3.51,5.39,2.08,12.61-3.26,16.27-2.39,1.63-5.17,2.26-7.84,2.01h0c-2.61-.16-5.04,.1-6.03,1.65-.25,.4-.36,.86-.28,1.47,.08,.11,.16,.21,.24,.32,0,.02,0,.03,0,.05,2.89,3.96,5.68,7.54,8.13,10.59,.02-.01,.03-.02,.05-.04,4.77,5.89,8.07,9.49,8.07,9.49l.08-.05s8.3-7.32,20.12-16.02c.55-.05,1.07,.23,1.42,.46,1.55,1,1.71,3.55,1.24,6.4v.02c.37,2.29,.59,5.23,2.2,7.58,3.71,5.42,11.25,6.67,16.67,2.97,5.42-3.71,6.8-11.11,3.09-16.53-1.63-2.39-3.99-4-6.57-4.74v-.05c-2.48-.78-4.64-1.97-5.01-3.78-.09-.43-.02-.99,.23-1.49,13.02-8.38,23.69-13.89,23.69-13.89l.11-.08s-2.65-5.03-6.84-12.14c-1.53-2.59-3.26-5.46-5.15-8.47,1.89,3.01,3.62,5.88,5.15,8.47,.02-.01,.04-.02,.06-.03-1.51-2.57-3.23-5.41-5.12-8.41Z"/><path class="cls-1" d="M85.92,37.8c-1.19-1.26-2.65-2.43-3.75-2.2-1.8,.37-2.88,2.44-3.66,4.93l-.03-.02c-.73,2.58-2.34,4.93-4.73,6.56-5.32,3.64-12.55,2.36-16.31-2.82-3.5-5.39-2.08-12.63,3.25-16.28,2.39-1.63,5.16-2.28,7.83-2.03v-.03c2.6,.17,4.92-.08,5.92-1.63,.61-.95,.05-2.72-.7-4.29-3.98-5.37-7.42-9.61-9.95-12.59-2.69-3.25-4.36-5.13-4.36-5.13l-.11,.08s-9.01,7.95-21.53,17.05c-.56,.06-1.11-.09-1.48-.32-1.55-1-1.88-3.44-1.71-6.04h-.05c.25-2.68-.4-5.46-2.04-7.85C28.8-.24,21.39-1.63,15.97,2.07c-5.42,3.71-6.98,11.2-3.27,16.61,1.61,2.36,4.27,3.63,6.28,4.79l-.33-.19c3.24,1.24,5.49,1.87,5.86,3.68,.09,.42,.16,1-.08,1.5-12.33,7.83-22.14,12.89-22.22,12.95h0s0,0,0,0l-.08,.05s1.78,3.61,4.93,9.21c2.04,3.67,4.69,8.2,7.87,13.19,.01,0,.02,.01,.03,.02,.07,.12,.15,.23,.22,.35,.54,.3,1.01,.37,1.47,.27,1.81-.37,2.93-2.54,3.71-5.03h.01c.73-2.58,2.32-4.95,4.71-6.59,5.36-3.66,12.63-2.37,16.38,2.9,3.51,5.39,2.08,12.61-3.26,16.27-2.39,1.63-5.17,2.26-7.84,2.01h0c-2.61-.16-5.04,.1-6.03,1.65-.25,.4-.36,.86-.28,1.47,.08,.11,.16,.21,.24,.32,0,.02,0,.03,0,.05,2.89,3.96,5.68,7.54,8.13,10.59,.02-.01,.03-.02,.05-.04,4.77,5.89,8.07,9.49,8.07,9.49l.08-.05s8.3-7.32,20.12-16.02c.55-.05,1.07,.23,1.42,.46,1.55,1,1.71,3.55,1.24,6.4v.02c.37,2.29,.59,5.23,2.2,7.58,3.71,5.42,11.25,6.67,16.67,2.97s6.8-11.11,3.09-16.53c-1.63-2.39-3.99-4-6.57-4.74v-.05c-2.48-.78-4.64-1.97-5.01-3.78-.09-.43-.02-.99,.23-1.49,13.02-8.38,23.69-13.89,23.69-13.89l.11-.08s-2.65-5.03-6.84-12.14c-1.53-2.59-3.26-5.46-5.15-8.47,1.89,3.01,3.62,5.88,5.15,8.47,.02-.01,.04-.02,.06-.03-1.51-2.57-3.23-5.41-5.12-8.41Z"/></svg>