<?xml version="1.0" encoding="UTF-8"?><svg id="Layer_1" xmlns="http://www.w3.org/2000/svg" viewBox="0 0 168.25 168.25"><defs><style>.cls-1{fill:#103b60;}.cls-2{fill:#fff;stroke:#f7971d;stroke-miterlimit:10;stroke-width:3.58px;}</style></defs><circle class="cls-2" cx="84.12" cy="84.12" r="82.33"/><g><path class="cls-1" d="M50.75,72.98c4.24-.95,9.34-1.91,15.07-2.64v-9.38c0-10.93,8.89-19.82,19.82-19.82s19.82,8.89,19.82,19.82v9.38c5.73,.73,10.83,1.69,15.07,2.64v-12.02c0-19.24-15.65-34.89-34.89-34.89s-34.89,15.65-34.89,34.89v12.02Z"/><path class="cls-1" d="M85.64,96.1c-2.27,0-4.11,1.84-4.11,4.11s1.84,4.11,4.11,4.11,4.11-1.84,4.11-4.11c0-2.27-1.84-4.11-4.11-4.11h0Z"/><path class="cls-1" d="M85.64,75.63c-20.68,0-37.9,4.69-43.8,6.5v49.71c5.91,1.82,23.17,6.51,43.8,6.51s37.9-4.69,43.8-6.5v-49.71c-5.91-1.82-23.17-6.51-43.8-6.51h0Zm3.29,34.75v10.8h-6.58v-10.8c-4.29-1.39-7.4-5.42-7.4-10.17,0-5.89,4.79-10.69,10.69-10.69s10.69,4.79,10.69,10.69c0,4.75-3.11,8.78-7.4,10.17Z"/></g></svg>