<?xml version="1.0" encoding="UTF-8"?><svg id="Layer_1" xmlns="http://www.w3.org/2000/svg" viewBox="0 0 212 207.84"><defs><style>.cls-1{fill:#f7971d;}.cls-2{fill:#103b60;}</style></defs><g><circle class="cls-2" cx="102.23" cy="68.11" r="40.87"/><path class="cls-2" d="M204.33,102.1C204.3,45.67,158.52-.04,102.1,0,45.67,.04-.04,45.81,0,102.23c.02,22.57,7.36,43.43,19.77,60.33v.02s.23,.3,.23,.3c18.62,25.17,48.53,41.48,82.24,41.45,30.58-.02,59.55-13.74,78.94-37.39l3.54-4.36-.09-.11c12.79-17.48,19.72-38.62,19.7-60.37ZM102.23,13.62c48.9,0,88.54,39.64,88.54,88.54,0,18.45-5.65,35.58-15.3,49.76-2.65-2.73-5.45-5.31-8.39-7.72-41.38-33.99-101.47-30.04-138.1,7.72-9.65-14.18-15.3-31.31-15.3-49.76C13.69,53.26,53.33,13.62,102.23,13.62Z"/></g><g><circle class="cls-1" cx="109.9" cy="71.62" r="40.87"/><path class="cls-1" d="M212,105.61c-.04-56.42-45.81-102.14-102.23-102.1C53.34,3.54,7.63,49.32,7.67,105.74c.02,22.57,7.36,43.43,19.77,60.33v.02s.23,.3,.23,.3c18.62,25.17,48.53,41.48,82.24,41.45,30.58-.02,59.55-13.74,78.94-37.39l3.54-4.36-.09-.11c12.79-17.48,19.72-38.62,19.7-60.37ZM109.9,17.13c48.9,0,88.54,39.64,88.54,88.54,0,18.45-5.65,35.58-15.3,49.76-2.65-2.73-5.45-5.31-8.39-7.72-41.38-33.99-101.47-30.04-138.1,7.72-9.65-14.18-15.3-31.31-15.3-49.76,0-48.9,39.64-88.54,88.54-88.54Z"/></g></svg>