<?xml version="1.0" encoding="UTF-8"?><svg id="Layer_1" xmlns="http://www.w3.org/2000/svg" viewBox="0 0 195.56 37.72"><defs><style>.cls-1{font-family:OpenSans-Bold, 'Open Sans';font-size:20px;font-weight:700;letter-spacing:.04em;}.cls-1,.cls-2{fill:#103b60;}.cls-3{fill:#fff;stroke:#f7971d;stroke-miterlimit:10;stroke-width:2px;}</style></defs><path class="cls-2" d="M27.09,13h-.71v-.9c0-1.66-1.35-3.01-3.01-3.01s-3.01,1.35-3.01,3.01v.9h-.72c-.56,0-1.02,.46-1.02,1.02v5.85c0,.57,.46,1.03,1.02,1.03h7.45c.57,0,1.04-.46,1.04-1.03v-5.85c0-.56-.46-1.02-1.04-1.02Zm-5.37-.9c0-.91,.74-1.65,1.65-1.65s1.64,.74,1.64,1.65v.9h-3.29v-.9Zm2.2,6.09v1.49c0,.07-.05,.11-.12,.11h-.71c-.06,0-.11-.04-.11-.11v-1.49c-.49-.19-.84-.66-.84-1.22,0-.72,.59-1.31,1.31-1.31s1.31,.59,1.31,1.31c0,.56-.35,1.03-.84,1.22Z"/><g><g><path class="cls-2" d="M6.09,8.46H181c3.36,0,6.1,2.73,6.1,6.1V31.62c0,3.36-2.73,6.1-6.1,6.1H6.09C2.73,37.72,0,34.99,0,31.63V14.56C0,11.2,2.73,8.46,6.09,8.46Z"/><rect class="cls-3" x="7.47" y="1" width="187.09" height="29.25" rx="6.09" ry="6.09"/></g><text class="cls-1" transform="translate(38.4 23.19)"><tspan x="0" y="0">••••••••••••••••</tspan></text></g></svg>