<?xml version="1.0" encoding="UTF-8"?><svg id="Layer_1" xmlns="http://www.w3.org/2000/svg" viewBox="0 0 138.48 144.71"><defs><style>.cls-1{fill:#f7971d;}.cls-2{fill:#103b60;}</style></defs><g id="snowflake"><circle class="cls-2" cx="68.56" cy="74.8" r="10.83"/><path class="cls-2" d="M132.23,85.35l-5.48-1.73-1.86,5.91-8.86-2.79,4.52-14.34-5.48-1.73-4.52,14.34-8.86-2.79,3.19-10.12-5.48-1.73-3.19,10.12-7.37-2.32c.42-2.53,.38-5.18-.2-7.83s-1.67-5.07-3.13-7.18l5.69-5.22,7.17,7.82,4.24-3.88-7.17-7.82,6.85-6.28,10.16,11.08,4.24-3.88-10.16-11.08,6.85-6.28,4.18,4.56,4.24-3.88-4.18-4.56,5.22-4.78-3.88-4.24-5.22,4.78-4.18-4.56-4.24,3.88,4.18,4.56-6.85,6.28-10.16-11.08-4.24,3.88,10.16,11.08-6.85,6.28-7.17-7.82-4.24,3.88,7.17,7.82-5.7,5.23c-4.02-3.3-9.24-5.06-14.66-4.63l-1.67-7.54,10.36-2.3-1.25-5.61-10.36,2.3-2.01-9.07,14.68-3.26-1.25-5.61-14.68,3.26-2.01-9.07,6.04-1.34-1.25-5.61-6.04,1.34-1.53-6.91-5.61,1.25,1.53,6.91-6.04,1.34,1.25,5.61,6.04-1.34,2.01,9.07-14.68,3.26,1.25,5.61,14.68-3.26,2.01,9.07-10.36,2.3,1.25,5.61,10.36-2.3,1.67,7.54c-5.09,1.91-9.08,5.71-11.33,10.4l-7.38-2.32,3.19-10.12-5.48-1.73-3.19,10.12-8.86-2.79,4.52-14.34-5.48-1.73-4.52,14.34-8.86-2.79,1.86-5.9-5.48-1.73-1.86,5.9-6.75-2.13-1.73,5.48,6.75,2.13-1.86,5.9,5.48,1.73,1.86-5.91,8.86,2.79-4.52,14.34,5.48,1.73,4.52-14.34,8.86,2.79-3.19,10.12,5.48,1.73,3.19-10.12,7.37,2.32c-.42,2.53-.38,5.18,.2,7.83s1.67,5.07,3.13,7.18l-5.69,5.22-7.17-7.82-4.24,3.88,7.17,7.82-6.85,6.28-10.16-11.08-4.24,3.88,10.16,11.08-6.85,6.28-4.18-4.56-4.24,3.88,4.18,4.56-5.22,4.78,3.88,4.24,5.22-4.78,4.18,4.56,4.24-3.88-4.18-4.56,6.85-6.28,10.16,11.08,4.24-3.88-10.16-11.08,6.85-6.28,7.17,7.82,4.24-3.88-7.17-7.82,5.7-5.23c4.02,3.3,9.24,5.06,14.66,4.63l1.67,7.54-10.36,2.3,1.25,5.61,10.36-2.3,2.01,9.07-14.68,3.26,1.25,5.61,14.68-3.26,2.01,9.07-6.04,1.34,1.25,5.61,6.04-1.34,1.53,6.91,5.61-1.25-1.53-6.91,6.04-1.34-1.25-5.61-6.04,1.34-2.01-9.07,14.68-3.26-1.25-5.61-14.68,3.26-2.01-9.07,10.36-2.3-1.25-5.61-10.36,2.3-1.67-7.54c5.09-1.91,9.08-5.71,11.33-10.4l7.38,2.32-3.19,10.12,5.48,1.73,3.19-10.12,8.86,2.79-4.52,14.34,5.48,1.73,4.52-14.34,8.86,2.79-1.86,5.9,5.48,1.73,1.86-5.9,6.75,2.13,1.73-5.48-6.75-2.13,1.86-5.9Zm-49.21-13.76c1.77,7.97-3.28,15.9-11.25,17.67s-15.9-3.28-17.67-11.25,3.28-15.9,11.25-17.67,15.9,3.28,17.67,11.25Z"/></g><g id="snowflake-2"><circle class="cls-1" cx="69.92" cy="69.91" r="10.83"/><path class="cls-1" d="M133.59,80.47l-5.48-1.73-1.86,5.91-8.86-2.79,4.52-14.34-5.48-1.73-4.52,14.34-8.86-2.79,3.19-10.12-5.48-1.73-3.19,10.12-7.37-2.32c.42-2.53,.38-5.18-.2-7.83-.59-2.65-1.67-5.07-3.13-7.18l5.69-5.22,7.17,7.82,4.24-3.88-7.17-7.82,6.85-6.28,10.16,11.08,4.24-3.88-10.16-11.08,6.85-6.28,4.18,4.56,4.24-3.88-4.18-4.56,5.22-4.78-3.88-4.24-5.22,4.78-4.18-4.56-4.24,3.88,4.18,4.56-6.85,6.28-10.16-11.08-4.24,3.88,10.16,11.08-6.85,6.28-7.17-7.82-4.24,3.88,7.17,7.82-5.7,5.23c-4.02-3.3-9.24-5.06-14.66-4.63l-1.67-7.54,10.36-2.3-1.25-5.61-10.36,2.3-2.01-9.07,14.68-3.26-1.25-5.61-14.68,3.26-2.01-9.07,6.04-1.34-1.25-5.61-6.04,1.34-1.53-6.91-5.61,1.25,1.53,6.91-6.04,1.34,1.25,5.61,6.04-1.34,2.01,9.07-14.68,3.26,1.25,5.61,14.68-3.26,2.01,9.07-10.36,2.3,1.25,5.61,10.36-2.3,1.67,7.54c-5.09,1.91-9.08,5.71-11.33,10.4l-7.38-2.32,3.19-10.12-5.48-1.73-3.19,10.12-8.86-2.79,4.52-14.34-5.48-1.73-4.52,14.34-8.86-2.79,1.86-5.9-5.48-1.73-1.86,5.9-6.75-2.13-1.73,5.48,6.75,2.13-1.86,5.9,5.48,1.73,1.86-5.91,8.86,2.79-4.52,14.34,5.48,1.73,4.52-14.34,8.86,2.79-3.19,10.12,5.48,1.73,3.19-10.12,7.37,2.32c-.42,2.53-.38,5.18,.2,7.83s1.67,5.07,3.13,7.18l-5.69,5.22-7.17-7.82-4.24,3.88,7.17,7.82-6.85,6.28-10.16-11.08-4.24,3.88,10.16,11.08-6.85,6.28-4.18-4.56-4.24,3.88,4.18,4.56-5.22,4.78,3.88,4.24,5.22-4.78,4.18,4.56,4.24-3.88-4.18-4.56,6.85-6.28,10.16,11.08,4.24-3.88-10.16-11.08,6.85-6.28,7.17,7.82,4.24-3.88-7.17-7.82,5.7-5.23c4.02,3.3,9.24,5.06,14.66,4.63l1.67,7.54-10.36,2.3,1.25,5.61,10.36-2.3,2.01,9.07-14.68,3.26,1.25,5.61,14.68-3.26,2.01,9.07-6.04,1.34,1.25,5.61,6.04-1.34,1.53,6.91,5.61-1.25-1.53-6.91,6.04-1.34-1.25-5.61-6.04,1.34-2.01-9.07,14.68-3.26-1.25-5.61-14.68,3.26-2.01-9.07,10.36-2.3-1.25-5.61-10.36,2.3-1.67-7.54c5.09-1.91,9.08-5.71,11.33-10.4l7.38,2.32-3.19,10.12,5.48,1.73,3.19-10.12,8.86,2.79-4.52,14.34,5.48,1.73,4.52-14.34,8.86,2.79-1.86,5.9,5.48,1.73,1.86-5.9,6.75,2.13,1.73-5.48-6.75-2.13,1.86-5.9Zm-49.21-13.76c1.77,7.97-3.28,15.9-11.25,17.67-7.97,1.77-15.9-3.28-17.67-11.25-1.77-7.97,3.28-15.9,11.25-17.67,7.97-1.77,15.9,3.28,17.67,11.25Z"/></g></svg>