<?xml version="1.0" encoding="UTF-8"?><svg id="Layer_1" xmlns="http://www.w3.org/2000/svg" viewBox="0 0 168.25 168.25"><defs><style>.cls-1{fill:#103b60;}.cls-2{fill:#fff;stroke:#f7971d;stroke-miterlimit:10;stroke-width:3.58px;}</style></defs><circle class="cls-2" cx="84.12" cy="84.12" r="82.33"/><path class="cls-1" d="M134.67,45.83c-4.22-1.01-7-2.97-7.53-3.67-.33-.81-.72-1.6-1.15-2.36-.44-.76-.92-1.5-1.46-2.2-2.7-3.54-8.86-6.94-16.02-6.06-6.16,.76-14.89,4.99-21.94,20.6-15.07,7.16-22.17,16.06-29.67,25.47-7.83,9.82-15.92,19.96-34.35,30.85l-3.74,2.21h16.01c.11,0,.22,0,.33,0h0c9.43-.08,20.26-3.6,30.56-9.93,9.45-5.81,16.02-12.42,18.34-16.4l6.3,3.68c-3.39,5.81-11.56,13.24-20.82,18.94-3.52,2.17-7.88,4.52-12.82,6.48-2.88,1.15-5.95,2.17-9.17,2.95-4.05,.98-8.33,1.59-12.73,1.59h-.37c6.7,1.39,14.81,2.54,23.13,2.81,1.28,.04,2.54,.06,3.78,.06,2.74,0,5.4-.1,7.98-.3-.74,2.52-1.85,5.52-3.25,8.78h-9.82v7.29h45.71v-7.29h-9.8c-1.23-2.86-3.48-7.73-6.07-11.82,5.99-1.83,11.3-4.42,15.89-7.74,12.9-9.33,19.6-24.17,19.94-44.1,1.07-1.2,1.83-2.59,2.51-3.85,1-1.84,1.67-2.98,2.56-3.28l.27-.09c2.41-.82,6.06-2.05,9.52-6.95l3.11-4.4-5.23-1.26Zm-60.7,83.48h0c1.22-3.06,2.44-6.56,3.13-9.72h0c.48-.08,.96-.17,1.44-.26,1.97,2.63,4.05,6.62,5.62,9.97h-10.19ZM111.85,49.79c-2.11,0-3.81-1.71-3.81-3.81s1.71-3.81,3.81-3.81,3.81,1.71,3.81,3.81-1.71,3.81-3.81,3.81Z"/></svg>