<?xml version="1.0" encoding="UTF-8"?><svg id="Layer_1" xmlns="http://www.w3.org/2000/svg" viewBox="0 0 113.43 109.98"><defs><style>.cls-1{fill:#f7971d;}.cls-2{fill:#fff;}.cls-3{fill:#103b60;}.cls-4{fill:#5cc5ca;}</style></defs><rect class="cls-2" x="19.15" y="26.7" width="39.99" height="36.7" transform="translate(-7.08 7.3) rotate(-9.78)"/><path class="cls-3" d="M97.3,.54c-.03-.2-.11-.38-.21-.54l-5,.86c-.04,.19-.05,.38-.02,.58l.12,.65c.15,.86-.43,1.68-1.29,1.83l-4,.7c-.86,.15-1.68-.43-1.83-1.29l-.12-.66c-.03-.2-.12-.38-.21-.54l-4.68,.81c-.04,.19-.05,.38-.02,.58l1.72,9.85c.15,.86-.43,1.68-1.29,1.83L19.73,25.73c-.86,.15-1.68-.43-1.83-1.29l-1.73-9.91c-.03-.2-.11-.38-.21-.54l-4.68,.81c-.04,.19-.05,.38-.02,.58l.13,.74c.15,.86-.43,1.68-1.29,1.83l-3.99,.69c-.86,.15-1.68-.43-1.83-1.29l-.13-.75c-.03-.2-.11-.38-.21-.54L.04,16.73c-.04,.19-.05,.38-.02,.58L16.14,109.64c.02,.12,.08,.22,.13,.33l3.98-.69c0-.12,.03-.24,.01-.36v-.05c-.16-.86,.42-1.68,1.28-1.83l3.99-.7c.86-.15,1.68,.43,1.83,1.29v.07c.03,.12,.1,.22,.14,.33l4.76-.82c0-.12,.03-.24,0-.36l-1.62-9.25c-.15-.86,.43-1.68,1.29-1.83l60.75-10.53c.86-.15,1.68,.43,1.83,1.29l1.63,9.31c.02,.12,.08,.22,.13,.33l4.77-.82c0-.12,.03-.24,0-.36l-.03-.15c-.15-.86,.43-1.68,1.29-1.83l3.99-.69c.86-.15,1.68,.43,1.83,1.29l.03,.16c.02,.12,.09,.22,.13,.33l5.1-.88c0-.12,.03-.24,.01-.36L97.3,.54ZM6.25,28.65c-.15-.86,.43-1.68,1.28-1.83l4-.7c.86-.15,1.68,.43,1.83,1.29l.36,2.07c.15,.86-.43,1.68-1.29,1.83l-3.99,.7c-.86,.15-1.68-.43-1.83-1.29l-.36-2.08Zm2.34,13.37c-.15-.86,.43-1.68,1.29-1.83l3.99-.7c.86-.15,1.68,.43,1.83,1.29l.36,2.07c.15,.86-.43,1.68-1.29,1.83l-4,.7c-.86,.15-1.68-.43-1.83-1.29l-.36-2.07Zm2.33,13.37c-.15-.86,.43-1.68,1.29-1.83l3.99-.7c.86-.15,1.68,.43,1.83,1.29l.36,2.08c.15,.86-.43,1.68-1.29,1.83l-3.99,.7c-.86,.15-1.68-.43-1.83-1.29l-.36-2.08Zm2.7,15.45l-.36-2.08c-.15-.86,.43-1.68,1.29-1.83l4-.7c.86-.15,1.68,.43,1.83,1.29l.36,2.07c.15,.86-.43,1.68-1.29,1.83l-3.99,.7c-.86,.15-1.68-.43-1.83-1.29Zm1.97,11.29c-.15-.86,.43-1.68,1.29-1.83l3.99-.7c.86-.15,1.68,.43,1.83,1.29l.36,2.08c.15,.86-.43,1.68-1.29,1.83l-3.99,.7c-.86,.15-1.68-.43-1.83-1.28l-.37-2.08Zm8.52,16.04l-3.99,.69c-.86,.15-1.68-.43-1.83-1.29l-.36-2.08c-.15-.86,.43-1.68,1.29-1.83l3.99-.7c.86-.15,1.68,.43,1.83,1.29l.36,2.08c.15,.86-.43,1.68-1.29,1.83ZM57.51,54.85l-33.3,5.74-4.52-25.95c-.15-.86,.43-1.68,1.29-1.83l31.78-5.51,4.75,27.55ZM87.04,14.63c-.15-.86,.43-1.68,1.28-1.83l3.99-.7c.86-.15,1.68,.43,1.83,1.29l.36,2.07c.15,.86-.43,1.68-1.28,1.83l-3.99,.7c-.86,.15-1.68-.43-1.83-1.29l-.36-2.07Zm2.34,13.37c-.15-.86,.43-1.68,1.29-1.83l3.99-.7c.86-.15,1.68,.43,1.83,1.29l.36,2.07c.15,.86-.43,1.68-1.29,1.83l-3.99,.7c-.86,.15-1.68-.43-1.83-1.29l-.36-2.07Zm2.33,13.37c-.15-.86,.43-1.68,1.29-1.83l4-.7c.86-.15,1.68,.43,1.83,1.29l.36,2.08c.15,.86-.43,1.68-1.29,1.83l-3.99,.7c-.86,.15-1.68-.43-1.83-1.29l-.37-2.08Zm2.7,15.45l-.36-2.08c-.15-.86,.43-1.68,1.29-1.83l3.99-.7c.86-.15,1.68,.43,1.83,1.29l.36,2.08c.15,.86-.43,1.68-1.29,1.83l-3.99,.7c-.86,.15-1.68-.43-1.83-1.29Zm1.97,11.29c-.15-.86,.43-1.68,1.29-1.83l3.99-.69c.86-.15,1.68,.43,1.83,1.29l.36,2.08c.15,.86-.43,1.68-1.28,1.83l-3.99,.7c-.86,.15-1.68-.43-1.83-1.29l-.36-2.08Zm8.53,16.04l-4,.69c-.86,.15-1.68-.43-1.83-1.29l-.36-2.07c-.15-.86,.43-1.68,1.29-1.83l3.99-.7c.86-.15,1.68,.43,1.83,1.29l.36,2.08c.15,.86-.43,1.68-1.28,1.83Z"/><path class="cls-4" d="M32.27,107.22c0-.12,.03-.24,0-.36l-1.62-9.25c-.15-.86,.43-1.68,1.29-1.83l60.75-10.53c.59-.1,1.14,.15,1.49,.59L81.76,13.69c-.03,.73-.53,1.37-1.28,1.5L19.73,25.73c-.86,.15-1.68-.43-1.83-1.29l-1.73-9.91,15.98,92.71,.13-.02ZM20.98,32.81l31.78-5.51,4.75,27.55-33.3,5.74-4.52-25.95c-.15-.86,.43-1.68,1.29-1.83Z"/><path class="cls-1" d="M32.27,107.22c0-.12,.03-.24,0-.36l-1.62-9.25c-.15-.86,.43-1.68,1.29-1.83l60.75-10.53c.59-.1,1.14,.15,1.49,.59L81.76,13.69c-.03,.73-.53,1.37-1.28,1.5L19.73,25.73c-.86,.15-1.68-.43-1.83-1.29l-1.73-9.91,15.98,92.71,.13-.02ZM20.98,32.81l31.78-5.51,4.75,27.55-33.3,5.74-4.52-25.95c-.15-.86,.43-1.68,1.29-1.83Z"/><path class="cls-3" d="M61.47,82.63c-15.09,2.6-29.51-7.69-32.14-22.93-2.63-15.25,7.51-29.76,22.61-32.37,15.1-2.6,29.51,7.69,32.14,22.93,2.63,15.25-7.51,29.76-22.61,32.37Zm-9.26-53.74c-14.23,2.45-23.8,16.15-21.32,30.54,2.48,14.39,16.08,24.09,30.31,21.64,14.23-2.45,23.8-16.15,21.32-30.54-2.48-14.39-16.08-24.09-30.31-21.64Z"/><path class="cls-3" d="M64.19,45.57c.33,1.91,.06,3.55-.8,4.95-.86,1.4-2.23,2.47-4.12,3.21l.03,.16c2.45-.11,4.36,.34,5.72,1.37,1.37,1.03,2.22,2.53,2.56,4.52,.49,2.85-.12,5.2-1.83,7.07-1.71,1.87-4.38,3.12-8.01,3.74-1.58,.27-3.04,.4-4.4,.39-1.35-.01-2.7-.21-4.04-.6l-.56-3.23c1.4,.42,2.86,.67,4.39,.75,1.52,.08,2.93,0,4.24-.22,5.16-.89,7.39-3.35,6.69-7.39-.62-3.62-3.78-4.94-9.47-3.96l-2.94,.51-.5-2.92,2.98-.51c2.33-.4,4.08-1.23,5.27-2.49,1.18-1.26,1.62-2.8,1.31-4.63-.25-1.46-.95-2.51-2.09-3.17-1.14-.66-2.57-.84-4.29-.54-1.31,.23-2.51,.61-3.6,1.17-1.09,.55-2.3,1.43-3.62,2.64l-2.11-1.99c1.06-1.18,2.34-2.18,3.84-3.01,1.5-.83,3.14-1.39,4.91-1.7,2.9-.5,5.27-.23,7.1,.82,1.83,1.05,2.95,2.73,3.35,5.05Z"/><g><path class="cls-3" d="M57.11,52.53c-.86,.4-1.85,.7-2.98,.89l-2.98,.51,.34,1.95,6.02-1.04-.4-2.32Z"/><path class="cls-3" d="M50.72,43.75c1.1-.55,2.3-.94,3.6-1.17,.37-.06,.71-.09,1.05-.11l-.5-2.9c-.38,.04-.74,.06-1.14,.13-1.77,.3-3.4,.87-4.91,1.7-1.51,.83-2.79,1.83-3.84,3.01l2.11,1.99c1.32-1.21,2.53-2.09,3.62-2.64Z"/></g><path class="cls-3" d="M52.21,28.9c.27-.05,.54-.06,.81-.1l-.26-1.5-2.83,.49c-13.97,3.49-23.12,17.36-20.61,31.91l1.56-.27c-2.48-14.39,7.08-28.09,21.32-30.54Z"/><path class="cls-3" d="M53.61,32.21c-.43,.07-.84-.21-.91-.64l-1.17-6.77c-.07-.43,.21-.84,.65-.91s.84,.21,.91,.65l1.17,6.77c.07,.43-.22,.84-.64,.91Z"/><path class="cls-3" d="M62.85,85.81c-.43,.07-.84-.21-.91-.65l-1.17-6.77c-.07-.43,.21-.84,.65-.91s.84,.21,.91,.65l1.17,6.77c.07,.43-.22,.84-.64,.91Z"/><path class="cls-3" d="M34.87,58.75c.07,.43-.22,.84-.65,.91l-6.77,1.17c-.43,.07-.84-.21-.91-.65s.21-.84,.64-.91l6.77-1.17c.43-.07,.84,.21,.91,.64Z"/><path class="cls-3" d="M88.47,49.51c.07,.43-.22,.84-.65,.91l-6.77,1.17c-.43,.07-.84-.21-.91-.64s.21-.84,.65-.91l6.77-1.17c.43-.07,.84,.21,.91,.64Z"/><path class="cls-3" d="M34.87,58.75c-.07-.43-.49-.72-.91-.64l-6.77,1.17c-.43,.07-.72,.48-.64,.91h0s8.33-1.43,8.33-1.43h0Z"/><path class="cls-3" d="M53.61,32.21l-.85-4.91-.78,.13,.71,4.13c.07,.43,.48,.72,.91,.64Z"/></svg>