<?xml version="1.0" encoding="UTF-8"?><svg id="Layer_1" xmlns="http://www.w3.org/2000/svg" viewBox="0 0 168.25 168.25"><defs><style>.cls-1{fill:#103b60;}.cls-2{fill:#fff;stroke:#f7971d;stroke-miterlimit:10;stroke-width:3.58px;}</style></defs><circle class="cls-2" cx="84.12" cy="84.12" r="82.33"/><g><path class="cls-1" d="M77.74,64.67c5.08,0,9.19-4.11,9.19-9.19s-4.11-9.19-9.19-9.19-9.19,4.11-9.19,9.19,4.11,9.19,9.19,9.19Z"/><path class="cls-1" d="M48.09,125.64v12.31c0,1.88,1.52,3.4,3.4,3.4h47.88c1.88,0,3.4-1.52,3.4-3.4v-11.99h13.37c5.35,0,9.72-4.37,9.72-9.72v-17.02l7.83-.15c3.1-.05,5.06-3.38,3.61-6.11l-8.55-16.12c-1.91-3.59-2.9-7.6-2.9-11.65h0c0-25.64-20.89-46.39-46.58-46.18-25.61,.2-46.06,21.05-45.8,46.66,.08,7.38,1.89,14.35,5.04,20.5,6.28,12.24,9.57,25.76,9.57,39.48Zm5.19-71.75c0-.87,.52-1.65,1.32-1.99l5.04-2.15c.53-.23,.95-.67,1.17-1.2,.03-.07,.05-.12,.07-.19,.22-.53,.22-1.12,0-1.65l-2.07-5.02c-.33-.8-.15-1.74,.48-2.36l2.3-2.3c.61-.61,1.54-.8,2.34-.48l5.11,2.06c.52,.2,1.1,.2,1.63,0,.04-.01,.1-.04,.14-.05,.54-.22,.98-.64,1.21-1.18l2.11-5.05c.34-.8,1.13-1.33,2-1.33h3.25c.87,0,1.65,.52,1.99,1.32l2.18,5.11c.23,.53,.65,.94,1.18,1.16,.03,.01,.05,.03,.08,.03,.53,.22,1.13,.23,1.66,0l5.09-2.1c.8-.33,1.74-.15,2.36,.48l2.3,2.3c.61,.61,.8,1.54,.48,2.34l-2.07,5.17c-.2,.53-.2,1.12,.01,1.63,0,.01,.01,.03,.01,.04,.22,.54,.64,.98,1.18,1.21l5.12,2.14c.8,.34,1.33,1.13,1.33,2v3.25c0,.87-.52,1.65-1.32,1.99l-5.15,2.19c-.53,.23-.95,.65-1.17,1.2l-.03,.07c-.2,.52-.2,1.1,.01,1.62l2.12,5.12c.34,.8,.15,1.74-.48,2.36l-2.3,2.3c-.61,.61-1.54,.8-2.34,.48l-5.17-2.07c-.52-.2-1.1-.2-1.63,.01-.03,.01-.07,.03-.1,.04-.53,.22-.95,.64-1.18,1.17l-2.1,5.11c-.34,.8-1.13,1.33-2,1.33h-3.25c-.87,0-1.65-.52-1.99-1.32l-2.16-5.06c-.23-.54-.68-.97-1.23-1.17-.04-.01-.1-.04-.14-.05-.53-.2-1.12-.2-1.63,0l-5.05,2.08c-.8,.33-1.74,.15-2.36-.48l-2.3-2.3c-.61-.61-.8-1.54-.48-2.34l2.04-5.08c.22-.53,.2-1.12-.01-1.65-.03-.07-.05-.12-.08-.19-.22-.54-.64-.98-1.18-1.2l-5.01-2.08c-.8-.34-1.33-1.13-1.33-2v-3.25h-.01Z"/></g></svg>