<?xml version="1.0" encoding="UTF-8"?><svg id="Layer_1" xmlns="http://www.w3.org/2000/svg" viewBox="0 0 265.12 225.69"><defs><style>.cls-1{fill:#f7971d;}.cls-2{fill:#103b60;}</style></defs><path class="cls-2" d="M127.13,0C57.36,0,0,47.98,0,106.95c0,23.57,9.14,47.53,25.91,66.1L2.23,200.12c-2.33,2.67-2.9,6.45-1.42,9.68,1.47,3.23,4.68,5.3,8.23,5.3h127.13c51.51,0,118.1-44.36,118.1-108.15C254.27,47.98,196.9,0,127.13,0Zm-54.83,123.52c-9.96,0-18.08-8.11-18.08-18.08,0-9.96,8.11-18.08,18.08-18.08,9.96,0,18.08,8.11,18.08,18.08,0,9.96-8.11,18.08-18.08,18.08Zm54.83,0c-9.96,0-18.08-8.11-18.08-18.08,0-9.96,8.11-18.08,18.08-18.08,9.96,0,18.08,8.11,18.08,18.08,0,9.96-8.11,18.08-18.08,18.08Zm54.83,0c-9.96,0-18.08-8.11-18.08-18.08,0-9.96,8.11-18.08,18.08-18.08,9.96,0,18.08,8.11,18.08,18.08,0,9.96-8.11,18.08-18.08,18.08Z"/><path class="cls-1" d="M137.99,10.59c-69.77,0-127.13,47.98-127.13,106.95,0,23.57,9.14,47.53,25.91,66.1l-23.68,27.06c-2.33,2.67-2.9,6.45-1.42,9.68,1.47,3.23,4.68,5.3,8.23,5.3h127.13c51.51,0,118.1-44.36,118.1-108.15,0-58.98-57.36-106.95-127.13-106.95Zm-54.83,123.52c-9.96,0-18.08-8.11-18.08-18.08,0-9.96,8.11-18.08,18.08-18.08,9.96,0,18.08,8.11,18.08,18.08,0,9.96-8.11,18.08-18.08,18.08Zm54.83,0c-9.96,0-18.08-8.11-18.08-18.08,0-9.96,8.11-18.08,18.08-18.08,9.96,0,18.08,8.11,18.08,18.08,0,9.96-8.11,18.08-18.08,18.08Zm54.83,0c-9.96,0-18.08-8.11-18.08-18.08,0-9.96,8.11-18.08,18.08-18.08,9.96,0,18.08,8.11,18.08,18.08,0,9.96-8.11,18.08-18.08,18.08Z"/></svg>