<?xml version="1.0" encoding="UTF-8"?><svg id="Layer_1" xmlns="http://www.w3.org/2000/svg" viewBox="0 0 168.25 168.25"><defs><style>.cls-1{fill:#103b60;}.cls-2{fill:#fff;stroke:#f7971d;stroke-miterlimit:10;stroke-width:3.58px;}</style></defs><circle class="cls-2" cx="84.12" cy="84.12" r="82.33"/><path class="cls-1" d="M105.61,18.35h0c-2.69-1.64-5.91-2.12-8.96-1.36l-53.32,13.31c-6.33,1.6-10.17,8.01-8.61,14.35l24.5,98.09c.76,3.05,2.71,5.66,5.4,7.27,2.68,1.62,5.9,2.11,8.95,1.35l53.33-13.32c3.04-.76,5.65-2.71,7.26-5.4,1.62-2.68,2.11-5.9,1.35-8.95L111.01,25.61c-.76-3.04-2.71-5.65-5.4-7.26Zm-7.33,118.57h0c-1.71,.43-3.45-.61-3.88-2.33-.43-1.71,.61-3.45,2.33-3.88,1.71-.43,3.45,.61,3.88,2.33s-.61,3.45-2.33,3.88Zm24.17-26.72c1.03,4.14-1.49,8.34-5.63,9.38l-43.06,10.75c-4.14,1.03-8.34-1.49-9.38-5.63L46.12,51.6c-1.03-4.14,1.49-8.34,5.63-9.38l43.07-10.76c4.14-1.03,8.34,1.49,9.38,5.63l18.24,73.11Z"/></svg>