<?xml version="1.0" encoding="UTF-8"?><svg id="Layer_1" xmlns="http://www.w3.org/2000/svg" viewBox="0 0 253.22 251.29"><defs><style>.cls-1{fill:#f7971d;}.cls-2{fill:#103b60;}</style></defs><g id="Mine"><path class="cls-2" d="M240.69,70.03h-43.76c-1.52,0-2.93,.79-3.73,2.08l-33.73,54.81h-23.81c-1.84,0-3.49,1.15-4.11,2.88l-13.27,36.51h41.46l9.19-12.25c2.48-3.3,6.37-5.24,10.5-5.25h35.01c5.65,0,10.67,3.62,12.45,8.98l18.18,54.54V74.4c0-2.42-1.96-4.38-4.38-4.38Z"/><path class="cls-2" d="M244.84,239.32l-26.26-78.77c-.59-1.79-2.27-2.99-4.15-2.99h-35.01c-1.38,0-2.67,.65-3.5,1.75l-11.82,15.75H87.53c-1.85,0-3.5,1.16-4.12,2.91l-21.88,61.27c-.81,2.27,.37,4.78,2.64,5.59,.47,.17,.97,.26,1.48,.26H240.69c2.41,0,4.37-1.95,4.38-4.37,0-.47-.08-.94-.23-1.39Z"/><path class="cls-2" d="M144.69,102.02c-5.45-16.84-13.43-32.75-23.65-47.19l-17.63,17.63,34.04,34.04c1.71,1.71,4.48,1.71,6.19,0,1.17-1.17,1.58-2.91,1.06-4.48Z"/><path class="cls-2" d="M90.09,23.88C75.64,13.66,59.73,5.68,42.89,.23c-2.29-.76-4.77,.47-5.54,2.77-.52,1.57-.12,3.31,1.06,4.48l34.04,34.04,17.63-17.63Z"/><path class="cls-2" d="M97.21,66.27l21.66-21.66c1.71-1.71,1.71-4.48,0-6.19l-12.38-12.38c-1.71-1.71-4.48-1.71-6.19,0l-21.66,21.66,18.57,18.57Z"/><path class="cls-2" d="M72.45,53.89L1.28,125.06c-1.71,1.71-1.71,4.48,0,6.19l12.38,12.38c1.71,1.71,4.48,1.71,6.19,0L91.02,72.46l-18.57-18.57Z"/></g><g id="Mine-2"><g><path class="cls-1" d="M248.85,76.24h-43.76c-1.52,0-2.93,.79-3.73,2.08l-33.73,54.81h-23.81c-1.84,0-3.49,1.15-4.11,2.88l-13.27,36.51h41.46l9.19-12.25c2.48-3.3,6.37-5.24,10.5-5.25h35.01c5.65,0,10.67,3.62,12.45,8.98l18.18,54.54V80.61c0-2.42-1.96-4.38-4.38-4.38Z"/><path class="cls-1" d="M253,245.52l-26.26-78.77c-.59-1.79-2.27-2.99-4.15-2.99h-35.01c-1.38,0-2.67,.65-3.5,1.75l-11.82,15.75H95.68c-1.85,0-3.5,1.16-4.12,2.91l-21.88,61.27c-.81,2.27,.37,4.78,2.64,5.59,.47,.17,.97,.26,1.48,.26H248.85c2.41,0,4.37-1.95,4.38-4.37,0-.47-.08-.94-.23-1.39Z"/><path class="cls-1" d="M152.84,108.23c-5.45-16.84-13.43-32.75-23.65-47.19l-17.63,17.63,34.04,34.04c1.71,1.71,4.48,1.71,6.19,0,1.17-1.17,1.58-2.91,1.06-4.48Z"/><path class="cls-1" d="M98.24,30.09c-14.45-10.22-30.36-18.2-47.19-23.65-2.29-.76-4.77,.47-5.54,2.77-.52,1.57-.12,3.31,1.06,4.48l34.04,34.04,17.63-17.63Z"/><path class="cls-1" d="M105.36,72.48l21.66-21.66c1.71-1.71,1.71-4.48,0-6.19l-12.38-12.38c-1.71-1.71-4.48-1.71-6.19,0l-21.66,21.66,18.57,18.57Z"/><path class="cls-1" d="M80.61,60.1L9.43,131.27c-1.71,1.71-1.71,4.48,0,6.19l12.38,12.38c1.71,1.71,4.48,1.71,6.19,0L99.17,78.67l-18.57-18.57Z"/></g></g></svg>