<?xml version="1.0" encoding="UTF-8"?><svg id="Layer_1" xmlns="http://www.w3.org/2000/svg" viewBox="0 0 168.25 168.25"><defs><style>.cls-1{fill:#103b60;}.cls-2{fill:#fff;stroke:#f7971d;stroke-miterlimit:10;stroke-width:3.58px;}</style></defs><circle class="cls-2" cx="84.12" cy="84.12" r="82.33"/><path class="cls-1" d="M138,58.67l-14.11,2.82c-1.92,.38-3.16,2.24-2.78,4.16,.38,1.92,2.24,3.16,4.16,2.78l14.11-2.82c1.92-.38,3.16-2.24,2.78-4.16-.38-1.92-2.24-3.16-4.16-2.78Z"/><path class="cls-1" d="M137.33,39.16c-1.2-1.54-3.42-1.82-4.96-.62l-12.72,9.75c-1.54,1.2-1.82,3.42-.62,4.96,1.19,1.53,3.4,1.83,4.96,.62l12.72-9.75c1.54-1.2,1.82-3.42,.62-4.96Z"/><path class="cls-1" d="M143.78,79.54l-15.49-4.12c-1.88-.5-3.82,.59-4.34,2.48-.51,1.89,.6,3.83,2.48,4.34l15.49,4.12c1.9,.51,3.83-.61,4.34-2.48,.51-1.89-.6-3.83-2.48-4.34Z"/><path class="cls-1" d="M99.63,30.26c-3.83,.77-6.32,4.49-5.55,8.32l13.85,69.37c.77,3.83,4.49,6.32,8.32,5.55,3.83-.77,6.32-4.49,5.55-8.32l-13.85-69.37c-.77-3.83-4.49-6.32-8.32-5.55Z"/><path class="cls-1" d="M72.55,111.96c.07,1.71-1.05,3.27-2.77,3.61l-4.25,.85c-.3,.06-.55,.21-.81,.34l-1.79-6-3.17-.4-18.24,3.64,8.24,26.23c2.55,5.38,8.94,7.52,14.13,5.05,5.29-2.5,7.56-8.84,5.25-13.63l-2.47-8.29c.08-.01,.15,.02,.23,0l4.25-.85c4.79-.96,8.13-5.02,8.46-9.66l-7.07-.89Z"/><polygon class="cls-1" points="54.96 59.43 63.8 103.74 100.8 108.37 87.33 40.94 54.96 59.43"/><path class="cls-1" d="M30.71,65.67c-5.74,1.15-9.47,6.75-8.33,12.48l4.16,20.81c1.15,5.74,6.75,9.47,12.48,8.33l17.57-3.51-8.31-41.62-17.57,3.51Z"/></svg>