<?xml version="1.0" encoding="UTF-8"?><svg id="Layer_1" xmlns="http://www.w3.org/2000/svg" viewBox="0 0 223.21 257.71"><defs><style>.cls-1{fill:#f7971d;}.cls-2{fill:#103b60;}</style></defs><g id="surface1"><path class="cls-2" d="M187.69,.95c-20.02-4.6-40.05,7.94-44.65,27.96-1.25,5.44-1.86,14.31,4.56,34.76,.28,.91,.57,1.8,.86,2.68l45.86,10.5c.71-.74,1.43-1.5,2.16-2.27,14.7-15.73,17.97-23.75,19.17-28.97,4.6-20.02-7.94-40.05-27.96-44.65Z"/><path class="cls-2" d="M129.43,175.65c-5.92,25.77-31.47,42.09-56.94,36.39-.09-.02-.18-.04-.27-.06-12.32-2.83-22.82-10.3-29.59-21.03-6.82-10.82-9-23.62-6.14-36.04,1.02-4.43,2.92-8.98,5.61-13.48,2.25,3.87,5.96,6.86,10.61,8.1,4.67,1.24,9.52,.57,13.65-1.92,4.14-2.49,7.01-6.45,8.09-11.16l8.35-36.33c1.58-6.85-1.06-13.97-6.72-18.14s-13.25-4.58-19.32-1.04C27.83,97.78,7.91,121.86,2.13,147.01c-4.96,21.58-1.19,43.82,10.62,62.62,11.77,18.74,30.08,31.76,51.58,36.71l.23,.05c44.44,10.09,88.97-18.16,99.27-62.95l21.3-92.65-34.37-7.87-21.32,92.74Z"/></g><g id="surface1-2"><g><path class="cls-1" d="M194.31,10.22c-20.02-4.6-40.05,7.94-44.65,27.96-1.25,5.44-1.86,14.31,4.56,34.76,.28,.91,.57,1.8,.86,2.68l45.86,10.5c.71-.74,1.43-1.5,2.16-2.27,14.7-15.73,17.97-23.75,19.17-28.97,4.6-20.02-7.94-40.05-27.96-44.65Z"/><path class="cls-1" d="M136.05,184.92c-5.92,25.77-31.47,42.09-56.94,36.39-.09-.02-.18-.04-.27-.06-12.32-2.83-22.82-10.3-29.59-21.03-6.82-10.82-9-23.62-6.14-36.04,1.02-4.43,2.92-8.98,5.61-13.48,2.25,3.87,5.96,6.86,10.61,8.1,4.67,1.24,9.52,.57,13.65-1.92,4.14-2.49,7.01-6.45,8.09-11.16l8.35-36.33c1.58-6.85-1.06-13.97-6.72-18.14-5.66-4.17-13.25-4.58-19.32-1.04-28.94,16.84-48.85,40.92-54.63,66.07-4.96,21.58-1.19,43.82,10.62,62.62,11.77,18.74,30.08,31.76,51.58,36.71l.23,.05c44.44,10.09,88.97-18.16,99.27-62.95l21.3-92.65-34.37-7.87-21.32,92.74Z"/></g></g></svg>