<?xml version="1.0" encoding="UTF-8"?><svg id="Layer_1" xmlns="http://www.w3.org/2000/svg" viewBox="0 0 137.57 117.7"><defs><style>.cls-1{fill:#f7971d;}.cls-2{fill:#fff;}.cls-3{fill:#103b60;}</style></defs><path class="cls-3" d="M57.68,17.55l-.34-1.57c-.55-2.54-3.06-4.16-5.6-3.61L3.72,22.77C1.17,23.32-.44,25.83,.11,28.37L18.08,111.41l114.46-24.77L115.9,9.77c-.55-2.54-3.06-4.16-5.6-3.61l-52.62,11.39Z"/><path class="cls-3" d="M59.53,34l-.68,5.08L9.55,49.75c-2.54,.55-4.16,3.06-3.61,5.6l12.69,58.63c.55,2.54,3.06,4.16,5.6,3.61l105.25-22.78c2.54-.55,4.16-3.06,3.61-5.6l-14.37-66.39c-.55-2.54-3.06-4.16-5.6-3.61l-49.92,10.8c-1.94,.42-3.41,2.01-3.67,3.98Z"/><path class="cls-1" d="M62.04,11.5l-.34-1.57c-.55-2.54-3.06-4.16-5.6-3.61L8.08,16.71c-2.54,.55-4.16,3.06-3.61,5.6L22.45,105.35l114.46-24.77L120.27,3.72c-.55-2.54-3.06-4.16-5.6-3.61L62.04,11.5Z"/><rect class="cls-2" x="18.3" y="17.14" width="107.8" height="77.43" transform="translate(-10.18 16.54) rotate(-12.21)"/><path class="cls-1" d="M63.9,27.95l-.68,5.08L13.92,43.69c-2.54,.55-4.16,3.06-3.61,5.6l12.69,58.63c.55,2.54,3.06,4.16,5.6,3.61l105.25-22.78c2.54-.55,4.16-3.06,3.61-5.6l-14.37-66.39c-.55-2.54-3.06-4.16-5.6-3.61l-49.92,10.8c-1.94,.42-3.41,2.01-3.67,3.98Z"/><path class="cls-3" d="M85.53,54.88l-2.5,.55-.69-3.14c-1.28-5.79-7.04-9.46-12.82-8.18-5.79,1.28-9.46,7.03-8.18,12.82l.69,3.14-2.52,.56c-1.96,.43-3.21,2.39-2.78,4.35l4.51,20.42c.44,2.01,2.41,3.25,4.37,2.82l26.01-5.75c2-.44,3.26-2.4,2.82-4.41l-4.51-20.42c-.43-1.96-2.4-3.2-4.4-2.76Zm-19.44,1.01c-.7-3.17,1.3-6.32,4.48-7.02s6.31,1.31,7.01,4.48l.69,3.14-11.49,2.54-.69-3.14Zm12.39,19.59l1.15,5.21c.05,.23-.1,.43-.32,.48l-2.5,.55c-.2,.04-.42-.07-.47-.3l-1.15-5.21c-1.86-.29-3.45-1.67-3.89-3.63-.56-2.52,1.04-5.03,3.58-5.59s5.03,1.05,5.59,3.57c.43,1.96-.44,3.88-2,4.93Z"/></svg>